<svg width="152" height="84" viewBox="0 0 152 84" xmlns="http://www.w3.org/2000/svg" xmlns:xlink="http://www.w3.org/1999/xlink">
  <defs>
    <path d="m16 8.37-2.267 2.257c-.151.15-.303.301-.53.452-.83.602-1.738.903-2.72.903a4.515 4.515 0 0 1-3.629-1.806c-.226-.301-.15-.828.152-1.054.302-.225.831-.15 1.058.15.982 1.355 2.872 1.581 4.233.603a.589.589 0 0 0 .302-.301l2.268-2.258C16 6.112 16 4.231 14.79 3.102a3.069 3.069 0 0 0-4.233 0l-1.285 1.28a.733.733 0 0 1-1.058 0 .725.725 0 0 1 0-1.054L9.5 2.048a4.44 4.44 0 0 1 6.274 0c1.89 1.656 1.965 4.59.226 6.322Zm-7.407 5.192-1.285 1.28a3.069 3.069 0 0 1-4.233 0c-1.21-1.13-1.21-3.086-.076-4.215L5.267 8.37l.302-.301c.68-.452 1.437-.678 2.268-.602.831.15 1.512.526 1.965 1.204.227.3.756.376 1.058.15.303-.226.378-.752.152-1.053-.756-.979-1.814-1.58-2.948-1.731-1.134-.226-2.343.075-3.326.828l-.454.451-2.267 2.258C.278 11.38.354 14.24 2.092 15.97c.907.827 2.041 1.279 3.175 1.279s2.268-.452 3.175-1.28l1.285-1.279a.725.725 0 0 0 0-1.053c-.303-.301-.832-.377-1.134-.076Z" id="path-1"/>
    <path d="M8.89 4.65 7.63 5.904a1.88 1.88 0 0 1-.295.251 2.523 2.523 0 0 1-1.511.502 2.508 2.508 0 0 1-2.016-1.004.448.448 0 0 1 .084-.585.453.453 0 0 1 .588.084c.546.752 1.596.878 2.351.334A.327.327 0 0 0 7 5.319l1.26-1.254c.63-.67.63-1.715-.042-2.342a1.705 1.705 0 0 0-2.351 0l-.714.711a.407.407 0 0 1-.588 0 .403.403 0 0 1 0-.585l.714-.711a2.466 2.466 0 0 1 3.485 0c1.05.92 1.092 2.55.126 3.512ZM4.773 7.535l-.714.71a1.705 1.705 0 0 1-2.352 0 1.648 1.648 0 0 1-.042-2.34l1.26-1.255.168-.167a1.916 1.916 0 0 1 1.26-.335c.462.084.84.293 1.092.67.126.166.42.208.588.083a.448.448 0 0 0 .084-.586 2.484 2.484 0 0 0-1.638-.961c-.63-.126-1.302.042-1.848.46l-.252.25L1.12 5.32a2.541 2.541 0 0 0 .042 3.554c.504.46 1.134.71 1.764.71.63 0 1.26-.25 1.764-.71l.714-.711a.403.403 0 0 0 0-.586c-.168-.167-.462-.209-.63-.041Z" id="path-3"/>
  </defs>
  <g id="shareable-link" stroke="none" stroke-width="1" fill="none" fill-rule="evenodd">
    <rect id="laptop-shadow" fill="#EEEFF0" fill-rule="nonzero" x="0" y="10" width="113" height="71" rx="8"/>
    <rect id="mobile-shadow" fill="#EEEFF0" fill-rule="nonzero" x="109" y="26" width="35" height="58" rx="8"/>
    <path d="M116 1c1.933 0 3.683.784 4.95 2.05A6.978 6.978 0 0 1 123 8v9.194l1.124-.14A7.08 7.08 0 0 1 125 17h19c1.933 0 3.683.784 4.95 2.05A6.978 6.978 0 0 1 151 24v42a6.978 6.978 0 0 1-2.05 4.95A6.978 6.978 0 0 1 144 73h-19a6.992 6.992 0 0 1-6.13-3.615A6.902 6.902 0 0 1 116 70H19a6.978 6.978 0 0 1-4.95-2.05A6.978 6.978 0 0 1 12 63V8c0-1.933.784-3.683 2.05-4.95A6.978 6.978 0 0 1 19 1Z" id="laptop-outline" stroke="#000" stroke-width="2" fill-rule="nonzero"/>
    <circle id="icon-laptop-circle" fill="#FFF" fill-rule="nonzero" cx="68" cy="36" r="16"/>
    <g id="icon-/-link-laptop" transform="translate(59 27)">
      <mask id="mask-2" fill="#fff">
        <use xlink:href="#path-1"/>
      </mask>
      <use id="Mask" fill="#EEC7C4" fill-rule="nonzero" xlink:href="#path-1"/>
      <g id="Group" mask="url(#mask-2)" fill="#EEC7C4">
        <g id="Icon-Color">
          <path id="Shape" d="M0 0h18v18H0z"/>
        </g>
      </g>
    </g>
    <rect id="mobile" stroke="#000" stroke-width="2" fill-rule="nonzero" x="118" y="17" width="33" height="56" rx="8"/>
    <circle id="icon-mobile-circle" fill="#FFF" fill-rule="nonzero" cx="135" cy="42" r="8"/>
    <g id="icon-/-link-mobile" transform="translate(130 37)">
      <mask id="mask-4" fill="#fff">
        <use xlink:href="#path-3"/>
      </mask>
      <use id="Mask" fill="#EEC7C4" fill-rule="nonzero" xlink:href="#path-3"/>
      <g id="Group" mask="url(#mask-4)" fill="#EEC7C4">
        <g id="Icon-Color">
          <path id="Shape" d="M0 0h10v10H0z"/>
        </g>
      </g>
    </g>
  </g>
</svg>
